<svg id="Livello_1" data-name="Livello 1" xmlns="http://www.w3.org/2000/svg" viewBox="0 0 5435.8 1604"><defs><style>.cls-1{fill:#b6b6b6;}.cls-2{fill:#fff;}.cls-3{fill:#c8102e;}</style></defs><path class="cls-1" d="M5050.92,2.76H385c-14.76,0-29.34,0-44,.07-12.31.08-24.52.31-36.94.5a541.21,541.21,0,0,0-80.6,7A271.18,271.18,0,0,0,147,35.1,258.76,258.76,0,0,0,81.81,81.7a247.39,247.39,0,0,0-47.39,64.08A258.05,258.05,0,0,0,9.28,221a504.7,504.7,0,0,0-7.21,79.14c-.36,12.12-.41,24.27-.6,36.39v934.31c.19,12.28.24,24.17.6,36.45a504.8,504.8,0,0,0,7.21,79.13,257.51,257.51,0,0,0,25.14,75.28,245.28,245.28,0,0,0,47.39,63.8,252.16,252.16,0,0,0,65.1,46.6,272.81,272.81,0,0,0,76.46,24.94,549.54,549.54,0,0,0,80.6,7c12.43.27,24.64.43,36.94.43,14.77.08,29.3.08,44.11.08H5051c14.47,0,29.16,0,43.61-.08,12.25,0,24.82-.16,37.08-.43a542.65,542.65,0,0,0,80.4-7,277,277,0,0,0,76.76-24.94,259.72,259.72,0,0,0,112.5-110.4,257.8,257.8,0,0,0,24.9-75.28,526.39,526.39,0,0,0,7.47-79.13c.15-12.28.15-24.17.15-36.45.31-14.35.31-28.64.31-43.23V379.71c0-14.48,0-28.83-.31-43.16,0-12.12,0-24.27-.15-36.39a526.39,526.39,0,0,0-7.47-79.14A253.15,253.15,0,0,0,5288.75,35.1,274.87,274.87,0,0,0,5212,10.33a534.72,534.72,0,0,0-80.4-7c-12.26-.19-24.83-.42-37.09-.5-14.44-.07-29.13-.07-43.59-.07Z"/><path d="M341.12,1570c-12.26,0-24.21-.15-36.37-.43a518.48,518.48,0,0,1-75.17-6.41,239.15,239.15,0,0,1-66.64-21.66,217,217,0,0,1-56.19-40.19,210.44,210.44,0,0,1-41-55.19,223.91,223.91,0,0,1-21.84-65.52,483.23,483.23,0,0,1-6.69-74.11c-.25-8.34-.59-36.09-.59-36.09V336.55s.35-27.33.59-35.36a479.29,479.29,0,0,1,6.66-74,225.13,225.13,0,0,1,21.85-65.7,212.87,212.87,0,0,1,40.83-55.26,224,224,0,0,1,56.41-40.42,237.64,237.64,0,0,1,66.49-21.5,515.28,515.28,0,0,1,75.44-6.48l36.29-.48H5094.33l36.72.5a505.88,505.88,0,0,1,74.75,6.4A241.58,241.58,0,0,1,5273,65.91a218.91,218.91,0,0,1,118.66,160.8,504.21,504.21,0,0,1,7,74.59c.12,11.2.12,23.22.12,35.18.31,14.84.31,28.94.31,43.17v847.88c0,14.35,0,28.37-.31,42.5,0,12.81,0,24.62-.16,36.74a495.82,495.82,0,0,1-6.87,73.27,224,224,0,0,1-21.74,66,224.68,224.68,0,0,1-97.12,95.19,238.85,238.85,0,0,1-67.1,21.75,514.29,514.29,0,0,1-75.17,6.4c-11.78.28-24.13.43-36.1.43l-43.6.07Z"/><path class="cls-2" d="M1821.84,1069.12l-47.13,140.32h-60.63l154.29-446.22h70.73L2094,1209.44h-62.65l-48.49-140.32Zm148.86-45-44.46-128.44c-10.11-29.12-16.84-55.6-23.58-81.42h-1.33c-6.75,26.48-14.13,53.62-22.91,80.77L1834,1024.11Z"/><path class="cls-2" d="M2139.15,993.66c0-41-1.35-74.15-2.7-104.65h53.24l2.7,55h1.35c23.94-40.21,68.5-64.14,115.87-62.25,78.8,0,138.08,65.55,138.08,162.86,0,115.2-71.4,172.14-148.19,172.14a115,115,0,0,1-100.37-50.31h-1.35v174.06h-58.6Zm58.6,85.42a128.11,128.11,0,0,0,2.69,23.83c10.16,40.12,46.85,68.27,88.92,68.19,62.65,0,99-50.32,99-123.81,0-64.21-34.35-119.16-97-119.16-43.11,1.17-80,30.85-89.59,72.17a92.79,92.79,0,0,0-4,23.83Z"/><path class="cls-2" d="M2492.81,993.66c0-41-1.35-74.15-2.7-104.65h53.24l2.71,55h1.35c23.93-40.21,68.49-64.16,115.86-62.25,78.81,0,138.1,65.55,138.1,162.86,0,115.2-71.42,172.14-148.21,172.14a115,115,0,0,1-100.36-50.31h-1.35v174.06h-58.64Zm58.61,85.42a128.11,128.11,0,0,0,2.69,23.83c10.15,40.12,46.84,68.27,88.91,68.19,62.65,0,99-50.32,99-123.81,0-64.21-34.36-119.16-97-119.16-43.11,1.15-80,30.84-89.58,72.17a92.79,92.79,0,0,0-4,23.83Z"/><path class="cls-2" d="M3206.17,1189.62a429.5,429.5,0,0,1-139.44,24.48c-68.7,0-125.29-17.2-169.75-58.91-39.11-37.08-63.32-96.65-63.32-166.17.68-133.08,93.64-230.39,245.87-230.39a285.15,285.15,0,0,1,113.18,20.53l-14.13,47a238.86,238.86,0,0,0-100.36-19.22c-110.47,0-182.54,67.53-182.54,179.4,0,113.19,69.39,180.08,175.14,180.08,38.41,0,64.67-5.34,78.14-11.92v-133h-92.28V975.13h149.53Z"/><path class="cls-2" d="M3462.17,1209.44l-4.71-40.39h-2a122.18,122.18,0,0,1-99.69,47.67c-66,0-99.7-45.68-99.7-92,0-77.46,70.05-119.82,196-119.16v-6.62c0-26.47-7.4-74.14-74.1-74.14a164.69,164.69,0,0,0-84.88,23.82l-13.47-38.44a205,205,0,0,1,107.11-28.47c99.69,0,123.94,66.87,123.94,131.09V1132.6a443.94,443.94,0,0,0,5.44,76.8ZM3453.42,1046c-64.67-1.33-138.08,9.94-138.08,72.17-2.35,28.37,19.15,53.25,48,55.56a53.14,53.14,0,0,0,7.88,0c35.35.92,67.24-20.77,78.81-53.62a59.87,59.87,0,0,0,3.36-18.55Z"/><path class="cls-2" d="M3570.63,739.43h59.28v470h-59.28Z"/><path class="cls-2" d="M3729.61,739.43h59.29v470h-59.29Z"/><path class="cls-2" d="M3904.09,1059.86c1.35,78.78,52.55,111.22,111.82,111.22a217.57,217.57,0,0,0,90.26-16.55l10.11,41.71a268.08,268.08,0,0,1-108.45,19.86c-100.37,0-160.33-64.88-160.33-161.53s57.94-172.8,152.91-172.8c106.48,0,134.74,92,134.74,151a220.07,220.07,0,0,1-2,27.14Zm173.85-41.71c.67-37.07-15.5-94.66-82.19-94.66-59.94,0-86.22,54.28-90.93,94.66Z"/><path class="cls-2" d="M4191.06,989c0-37.74-.67-70.18-2.7-100h51.88l2,62.9H4245c14.82-43.05,50.51-70.19,90.26-70.19a65,65,0,0,1,16.84,2V938.7a90.72,90.72,0,0,0-20.2-2c-41.76,0-71.4,31.12-79.5,74.81a161.68,161.68,0,0,0-2.69,27.15v170.85h-58.6Z"/><path class="cls-2" d="M4473.31,889.08l71.41,189.34c7.41,21.19,15.48,46.34,20.88,65.54H4567c6.06-19.22,12.79-43.7,20.87-66.87l64.68-188h62.64l-88.91,228.4c-42.45,109.9-71.42,166.16-111.83,200.59a161.37,161.37,0,0,1-72.79,37.74l-14.83-49a157.73,157.73,0,0,0,51.89-28.47,177.19,177.19,0,0,0,49.84-64.88,41.21,41.21,0,0,0,4.71-13.88,50.13,50.13,0,0,0-4-15.23L4408.64,889.08Z"/><path class="cls-2" d="M1816.15,429h-88.87v82.74h99.43v24.86H1697.32V307.13H1821.6V332h-94.32v72.53h88.87Z"/><path class="cls-2" d="M1990.83,536.63,1961.2,485.9c-11.91-19.41-19.06-32-26.21-45.29h-.69c-6.47,13.28-13.27,25.54-24.85,45.63l-27.58,50.39h-34L1918,420.52l-67.42-113.39h34.39l30.31,53.8c8.51,15,15,26.56,21.11,38.82h1c6.47-13.62,12.26-24.18,20.77-38.82l31-53.8h34.4l-69.81,111.69,71.51,117.81Z"/><path class="cls-2" d="M2059.61,310.2c14.3-2.73,33-4.77,56.87-4.77,29.28,0,50.73,6.81,64.35,19.07,12.6,10.9,20.43,27.58,20.43,47.67,0,20.77-6.13,37.11-18.05,49-15.66,16.69-41.2,25.2-70.14,25.2-8.85,0-17-.34-23.84-2v92.28h-29.62Zm29.62,110c6.47,1.7,14.65,2.38,24.52,2.38,35.75,0,57.55-17.36,57.55-48.69,0-30.3-21.46-44.94-54.14-44.94-12.94,0-22.82,1-27.93,2.38Z"/><path class="cls-2" d="M2240.42,307.13h30V511.77h98.07v24.86h-128Z"/><path class="cls-2" d="M2477.75,540.38c-60.95,0-103.17-47-103.17-116.46,0-72.86,44.94-120.53,106.23-120.53,63,0,103.52,48,103.52,116.11,0,78.65-48,120.88-106.24,120.88Zm1.7-24.18c47,0,73.55-43.24,73.55-95.34,0-45.63-23.83-93.3-73.21-93.3s-73.89,46-73.89,95.68c0,48.35,26.56,93,73.21,93Z"/><path class="cls-2" d="M2622.8,310.54c15-3.07,36.78-5.11,56.87-5.11,31.66,0,52.44,6.13,66.74,19.07,11.23,9.87,18,25.54,18,43.58,0,30-19.41,50.06-43.24,58.23v1c17.36,6.13,27.92,22.47,33.71,46.31,7.49,32,12.94,54.14,17.36,63h-30.64c-3.75-6.81-8.85-26.22-15-54.82-6.81-31.67-19.41-43.58-46.31-44.61h-27.92v99.43H2622.8Zm29.63,104.19h30.3c31.67,0,51.76-17.36,51.76-43.58,0-29.63-21.45-42.57-52.78-42.57-14.3,0-24.17,1.37-29.28,2.73Z"/><path class="cls-2" d="M2924.49,429h-88.87v82.74H2935v24.86H2805.65V307.13h124.29V332h-94.32v72.53h88.87Z"/><path class="cls-2" d="M3075.33,307.13v229.5h-30V307.13Z"/><path class="cls-2" d="M3170.67,332.33h-69.8v-25.2h169.91v25.2h-70.15v204.3h-30Z"/><path class="cls-2" d="M3458.05,540.38c-61,0-103.17-47-103.17-116.46,0-72.86,44.94-120.53,106.23-120.53,63,0,103.51,48,103.51,116.11,0,78.65-48,120.88-106.23,120.88Zm1.7-24.18c47,0,73.55-43.24,73.55-95.34,0-45.63-23.84-93.3-73.21-93.3s-73.89,46-73.89,95.68c0,48.35,26.56,93,73.21,93Z"/><path class="cls-2" d="M3603.1,536.63V307.13h32.69L3709,423.24c16.68,26.9,30.3,51.08,40.86,74.57l1-.34c-2.72-30.64-3.4-58.56-3.4-94V307.13h27.92v229.5h-30l-72.86-116.45c-16-25.54-31.33-51.76-42.57-76.61l-1,.34c1.7,28.94,2,56.52,2,94.66v98.06Z"/><path class="cls-3" d="M647.83,296.42h451.4c160.39,0,290.41,127.78,290.41,285.42v443.63c0,157.63-130,285.41-290.41,285.41H647.83c-160.39,0-290.41-127.78-290.41-285.41V581.84C357.42,424.2,487.44,296.42,647.83,296.42Z"/><path class="cls-2" d="M561.83,803.74H589.2V936.38H561.83V882.51H500v53.87H472.61V803.74H500v53.51h61.83Zm154.29,75.92c0,21.56-10.87,33.11-30.67,33.11s-30.85-11.86-30.85-34V803.81H627.22v75.82c0,37.3,21.09,58.73,57.86,58.73,37.12,0,58.42-21.8,58.42-59.8V803.74H716.12Zm316.46,15.28-30.64-91.2H979.53l-30.6,91.2L919.12,803.8H889.94l47,132.57h22.67l30.68-87.09L1021,936.37h22.87l46.91-132.57H1062.4Zm107.36-15.65h49.79V855.14h-49.79V828h72.29V803.82h-99.31V936.29h101.91V912.12h-74.89Zm107.57,56.92h27V803.79h-27ZM797.68,908.68,785.4,936.3H757.32l59.46-132.56h24.15L900.15,936.3H871.44l-12.12-27.62Zm10.19-23.91h41.4L828.5,837.3Z"/><path class="cls-2" d="M873.53,634.87c-94.85-.11-171.71-75.65-171.82-168.86H726c0,80.08,66,145,147.46,145.08S1021,546.24,1021.07,466.16V466h24.27C1045.24,559.22,968.37,634.76,873.53,634.87Z"/></svg>