<svg id="Livello_1" data-name="Livello 1" xmlns="http://www.w3.org/2000/svg" viewBox="0 0 5435.8 1604"><defs><style>.cls-1{fill:#a6a6a6;}.cls-2{fill:#fff;}</style></defs><path class="cls-1" d="M5242.65,1602.81H191.93C87,1602.81,1.56,1517.59,1.56,1413.27V190.21C1.56,85.85,87,1,191.93,1H5242.65C5347.55,1,5436,85.85,5436,190.21V1413.27c0,104.32-88.44,189.54-193.34,189.54Z"/><path d="M5397,1413.31c0,84.74-69,153.38-154.34,153.38H191.93c-85.3,0-154.54-68.64-154.54-153.38V190.17c0-84.7,69.24-153.58,154.54-153.58H5242.65C5328,36.59,5397,105.47,5397,190.17l0,1223.14Z"/><path class="cls-2" d="M1214.37,793.23c-1.17-129.07,106.23-191.86,111.14-194.79-60.82-88.22-155.1-100.27-188.23-101.23-79.18-8.29-156,47.13-196.33,47.13-41.14,0-103.25-46.33-170.19-45-86.15,1.32-166.74,50.94-210.94,128-91.22,157.1-23.19,388,64.21,515,43.71,62.19,94.8,131.63,161.66,129.19,65.41-2.69,89.85-41.49,168.79-41.49,78.22,0,101.16,41.49,169.35,39.93,70.21-1.13,114.41-62.48,156.59-125.23,50.52-71.28,70.81-141.48,71.62-145.09C1350.39,999.07,1215.69,947.93,1214.37,793.23Z"/><path class="cls-2" d="M1085.55,413.67c35.18-43.77,59.26-103.32,52.57-163.75-50.92,2.24-114.6,35-151.28,77.85-32.44,37.72-61.42,99.56-53.94,157.7C990.11,489.72,1048.84,456.76,1085.55,413.67Z"/><path class="cls-2" d="M2161,1262.58h-91.41L2019.55,1106H1845.48l-47.7,156.55h-89l172.45-532.94h106.52Zm-156.59-222.22L1959.17,901.2q-7.2-21.33-27-100.4h-1.61q-7.9,34-25.44,100.4l-44.48,139.16Z"/><path class="cls-2" d="M2604.53,1065.71q0,98-53.25,154.94-47.7,50.64-118.43,50.62-76.33,0-109.7-54.55h-1.61v202.44h-85.82V1004.8q0-61.63-3.18-126.51H2308l4.79,60.91h1.61q42.93-68.84,130.34-68.8,68.35,0,114,53.74T2604.53,1065.71Zm-87.43,3.12q0-56.1-25.44-92.51-27.84-38-74.71-38c-21.18,0-40.42,7-57.61,20.94s-28.5,32.32-33.77,55c-2.66,10.57-4,19.22-4,26v64.07q0,41.94,25.85,70.81t67.14,28.87q48.49,0,75.48-37.16T2517.1,1068.83Z"/><path class="cls-2" d="M3048.83,1065.71q0,98-53.3,154.94-47.64,50.64-118.39,50.62-76.32,0-109.65-54.55h-1.61v202.44h-85.83V1004.8q0-61.63-3.18-126.51h75.48l4.79,60.91h1.61q42.87-68.84,130.35-68.8,68.3,0,114.08,53.74Q3048.77,978,3048.83,1065.71Zm-87.43,3.12q0-56.1-25.49-92.51-27.82-38-74.67-38c-21.21,0-40.42,7-57.64,20.94s-28.47,32.32-33.74,55c-2.62,10.57-4,19.22-4,26v64.07q0,41.94,25.76,70.81t67.23,28.87q48.48,0,75.47-37.16T2961.4,1068.83Z"/><path class="cls-2" d="M3545.58,1113.12q0,68-47.58,110.69-52.36,46.68-145.93,46.66-86.46,0-138.84-33.2l19.89-71.17q56.52,34,124.06,34,48.5,0,75.56-21.78c18-14.5,27-34,27-58.23q0-32.43-22.26-54.62t-73.91-41.21q-140.68-52.2-140.65-152.82,0-65.72,49.31-107.68,49.15-42,131.16-42,73.11,0,121.57,25.31l-21.46,69.6q-45.28-24.51-102.53-24.51-45.29,0-70.69,22.15-21.43,19.75-21.45,48.25,0,31.61,24.59,52.18,21.43,19,77.94,41.13,69.14,27.69,101.72,64.8C3534.75,1045.4,3545.58,1076.28,3545.58,1113.12Z"/><path class="cls-2" d="M3829.33,942.36h-94.6v186.58q0,71.19,50.08,71.16,23,0,38.12-4l2.38,64.83q-25.36,9.43-66.74,9.46-50.85,0-79.51-30.84T3650.44,1136V942.28h-56.36V878.21h56.36V807.85l84.3-25.31v95.67h94.59Z"/><path class="cls-2" d="M4256.16,1067.27q0,88.61-50.88,145.49-53.32,58.56-141.54,58.51-85,0-135.46-56.11t-50.48-141.52q0-89.33,52-146.25t140.25-56.95q85,0,136.71,56.15Q4256.19,981.07,4256.16,1067.27Zm-89.05,2.76c0-35.44-7.6-65.83-23-91.18q-27-46-77.05-46-51.75,0-78.7,46c-15.42,25.39-23,56.26-23,92.78,0,35.45,7.6,65.84,23,91.15q27.84,46,77.94,46,49.14,0,77-46.77C4159.14,1136.15,4167.11,1105.43,4167.11,1070Z"/><path class="cls-2" d="M4535.13,953.38a150,150,0,0,0-27.05-2.37q-45.3,0-70,34-21.44,30-21.45,75.89v201.64h-85.79l.81-263.27q0-66.43-3.22-121h74.75l3.14,73.53h2.38q13.58-37.9,42.91-60.88,28.68-20.6,62-20.58a138.71,138.71,0,0,1,21.46,1.56Z"/><path class="cls-2" d="M4919,1052.25c0,15.3-1,28.19-3.14,38.73H4658.35q1.5,56.94,37.35,87,32.55,26.85,84.22,26.87,57.18,0,104.18-18.18l13.44,59.27q-54.82,23.79-129.5,23.74-89.85,0-141.13-52.58T4575.66,1076q0-86.93,47.75-144.69,50-61.63,135.05-61.63,83.51,0,126.44,61.63Q4918.91,980.27,4919,1052.25Zm-81.84-22.14q.84-38-16.67-65.64-22.27-35.62-68.39-35.6-42.09,0-68.31,34.8-21.43,27.69-25.4,66.4h178.77Z"/><path class="cls-2" d="M1976.07,401.78q0,70.7-42.59,106.44-39.42,33-112,33c-24,0-44.52-1-61.71-3.13V280.55a458.26,458.26,0,0,1,72.66-5.44q69.13,0,104.26,29.91Q1976,338.85,1976.07,401.78Zm-44.48,1.16q0-45.84-24.39-70.32t-71.3-24.47c-13.28,0-24.59.88-34,2.72V506.66c5.19.8,14.69,1.16,28.5,1.16q48.42,0,74.75-26.79T1931.59,402.94Z"/><path class="cls-2" d="M2211.93,442.94q0,43.56-25,71.49-26.2,28.77-69.52,28.75-41.79,0-66.58-27.59t-24.76-69.52q0-43.86,25.56-71.85t68.92-28q41.77,0,67.18,27.55Q2211.9,400.61,2211.93,442.94Zm-43.76,1.37q0-26.15-11.31-44.82-13.29-22.58-37.84-22.58-25.42,0-38.69,22.58Q2069,418.18,2069,445.07q0,26.13,11.31,44.81c9.14,15.06,21.86,22.58,38.29,22.58q24.15,0,37.84-23Q2168.16,470.43,2168.17,444.31Z"/><path class="cls-2" d="M2528.17,350.12,2468.79,538.9h-38.64l-24.6-82a609.32,609.32,0,0,1-15.25-61h-.77a444.34,444.34,0,0,1-15.25,61l-26.13,82h-39.09l-55.83-188.78h43.35L2318,439.86q7.78,31.83,12.88,60.59h.77q4.71-23.67,15.65-60.19l26.94-90.1h34.37l25.81,88.18q9.36,32.25,15.21,62.15h1.17a593,593,0,0,1,12.88-62.15l23-88.18h41.42Z"/><path class="cls-2" d="M2746.88,538.9h-42.19V430.77q0-50-38.24-50c-12.52,0-22.63,4.57-30.48,13.74a48.57,48.57,0,0,0-11.71,32.35v112h-42.19V404.06q0-24.87-1.53-54h37.08l2,29.51h1.17c4.91-9.17,12.23-16.74,21.86-22.79a71.63,71.63,0,0,1,38.24-10.61q26.57,0,44.16,17.1,21.86,21,21.86,62.55Z"/><path class="cls-2" d="M2863.21,538.9h-42.14V263.5h42.14Z"/><path class="cls-2" d="M3111.59,442.94q0,43.56-25,71.49-26.21,28.77-69.52,28.75-41.85,0-66.58-27.59t-24.76-69.52q0-43.86,25.56-71.85t68.88-28c27.89,0,50.24,9.17,67.22,27.55Q3111.56,400.61,3111.59,442.94Zm-43.8,1.37q0-26.15-11.31-44.82c-8.82-15.05-21.46-22.58-37.8-22.58q-25.48,0-38.69,22.58-11.35,18.69-11.31,45.58,0,26.13,11.31,44.81c9.14,15.06,21.86,22.58,38.29,22.58q24.15,0,37.8-23C3063.92,476.78,3067.79,461.73,3067.79,444.31Z"/><path class="cls-2" d="M3315.76,538.9h-37.88l-3.14-21.75h-1.17q-19.44,26-55.43,26c-17.91,0-32.4-5.73-43.31-17.1-9.91-10.33-14.86-23.19-14.86-38.44q0-34.61,29.11-52.83T3270.92,417v-3.52q0-37.31-39.41-37.28-28.08,0-49.48,14l-8.57-27.55c17.63-10.85,39.41-16.3,65.09-16.3q74.4,0,74.47,78.09v69.52Q3313,522.17,3315.76,538.9ZM3272,474V444.91q-69.8-1.21-69.8,38c0,9.85,2.66,17.22,8.09,22.15s12.36,7.36,20.61,7.36a42.75,42.75,0,0,0,25.81-8.73c7.93-5.84,12.8-13.25,14.61-22.34A35.58,35.58,0,0,0,3272,474Z"/><path class="cls-2" d="M3555.48,538.9H3518l-2-30.32h-1.17c-12,23.07-32.32,34.6-60.94,34.6q-34.3,0-57-26.79t-22.62-69.52q0-45.84,24.6-74.21,23.85-26.43,58.57-26.43,38.22,0,53.46,25.63h.8V263.5H3554V488Q3554,515.61,3555.48,538.9Zm-43.72-79.62V427.81a61.1,61.1,0,0,0-1.17-13.22,47.72,47.72,0,0,0-15.25-25.43,41.58,41.58,0,0,0-28.22-10.29c-15.74,0-28.06,6.21-37.12,18.66s-13.52,28.35-13.52,47.78q0,28,13,45.45,13.71,18.62,36.87,18.62c13.85,0,24.92-5.17,33.34-15.54C3507.78,484.27,3511.76,472.74,3511.76,459.28Z"/><path class="cls-2" d="M3916.29,442.94q0,43.56-25,71.49c-17.47,19.18-40.58,28.75-69.52,28.75q-41.73,0-66.59-27.59t-24.75-69.52q0-43.86,25.56-71.85t69-28q41.72,0,67.14,27.55Q3916.24,400.61,3916.29,442.94Zm-43.72,1.37q0-26.15-11.31-44.82c-8.9-15.05-21.46-22.58-37.88-22.58q-25.37,0-38.69,22.58-11.36,18.69-11.31,45.58,0,26.13,11.31,44.81c9.14,15.06,21.86,22.58,38.28,22.58,16.11,0,28.79-7.64,37.88-23C3868.62,476.78,3872.57,461.73,3872.57,444.31Z"/><path class="cls-2" d="M4143.12,538.9H4101V430.77q0-50-38.29-50c-12.52,0-22.62,4.57-30.43,13.74a48.37,48.37,0,0,0-11.71,32.35v112h-42.23V404.06q0-24.87-1.49-54h37l2,29.51H4017a61.51,61.51,0,0,1,21.86-22.79,71.82,71.82,0,0,1,38.28-10.61q26.52,0,44.12,17.1,21.93,21,21.86,62.55Z"/><path class="cls-2" d="M4427,381.55h-46.45v91.71c0,23.31,8.25,35,24.59,35a74.74,74.74,0,0,0,18.8-2l1.09,31.83c-8.33,3.13-19.28,4.69-32.77,4.69-16.66,0-29.63-5-39-15.14s-14.09-27.07-14.09-50.9V381.55h-27.73V350.12h27.73v-34.6l41.35-12.42v47H4427v31.47Z"/><path class="cls-2" d="M4650.38,538.9h-42.23V431.57q0-50.76-38.2-50.78c-19.57,0-32.93,9.81-40.26,29.44a52.37,52.37,0,0,0-2,15.09V538.86h-42.15V263.5h42.15V377.27h.8q19.93-31.06,57-31,26.21,0,43.39,17.1,21.43,21.33,21.46,63.31Z"/><path class="cls-2" d="M4880.76,435.58a101.45,101.45,0,0,1-1.57,19H4752.66c.57,18.66,6.61,32.88,18.32,42.73q16.07,13.21,41.42,13.21,28.08,0,51.17-8.93l6.6,29.16c-18,7.76-39.17,11.65-63.68,11.65-29.39,0-52.54-8.61-69.28-25.83s-25.16-40.33-25.16-69.32q0-42.7,23.43-71.08,24.51-30.29,66.34-30.28c27.29,0,48,10.09,62,30.28Q4880.81,400.21,4880.76,435.58Zm-40.26-10.86c.32-12.45-2.45-23.18-8.17-32.24-7.33-11.65-18.48-17.5-33.57-17.5-13.77,0-25,5.69-33.58,17.1-7,9.1-11.15,19.95-12.52,32.64Z"/></svg>