<svg id="Livello_1" data-name="Livello 1" xmlns="http://www.w3.org/2000/svg" xmlns:xlink="http://www.w3.org/1999/xlink" viewBox="0 0 5435.8 1604"><defs><style>.cls-1,.cls-10,.cls-11,.cls-2,.cls-4,.cls-5,.cls-6,.cls-7,.cls-8,.cls-9{fill-rule:evenodd;}.cls-2{fill:#a6a6a6;}.cls-11,.cls-3,.cls-4{fill:#fff;}.cls-5{fill:url(#Градієнт_без_назви);}.cls-6{fill:url(#Градієнт_без_назви_2);}.cls-7{fill:url(#Градієнт_без_назви_3);}.cls-8{fill:url(#Градієнт_без_назви_4);}.cls-9{opacity:0.2;}.cls-10,.cls-11,.cls-9{isolation:isolate;}.cls-10{opacity:0.12;}.cls-11{opacity:0.25;}</style><linearGradient id="Градієнт_без_назви" x1="4036.8" y1="-425.28" x2="3978.99" y2="-395.44" gradientTransform="translate(-46114.24 9939.24) scale(11.64 22.55)" gradientUnits="userSpaceOnUse"><stop offset="0" stop-color="#00a0ff"/><stop offset="0.01" stop-color="#00a1ff"/><stop offset="0.26" stop-color="#00beff"/><stop offset="0.51" stop-color="#00d2ff"/><stop offset="0.76" stop-color="#00dfff"/><stop offset="1" stop-color="#00e3ff"/></linearGradient><linearGradient id="Градієнт_без_назви_2" x1="4006.98" y1="-417.09" x2="3900.88" y2="-417.09" gradientTransform="translate(-35287.06 4013.57) scale(9.15 7.7)" gradientUnits="userSpaceOnUse"><stop offset="0" stop-color="#ffe000"/><stop offset="0.41" stop-color="#ffbd00"/><stop offset="0.78" stop-color="orange"/><stop offset="1" stop-color="#ff9c00"/></linearGradient><linearGradient id="Градієнт_без_назви_3" x1="4111.93" y1="-403.59" x2="4051.17" y2="-324.77" gradientTransform="translate(-60765.75 5566.69) scale(15.02 11.58)" gradientUnits="userSpaceOnUse"><stop offset="0" stop-color="#ff3a44"/><stop offset="1" stop-color="#c31162"/></linearGradient><linearGradient id="Градієнт_без_назви_4" x1="4065.13" y1="-479.24" x2="4092.26" y2="-444.02" gradientTransform="translate(-60765.75 5552.69) scale(15.02 11.57)" gradientUnits="userSpaceOnUse"><stop offset="0" stop-color="#32a071"/><stop offset="0.07" stop-color="#2da771"/><stop offset="0.48" stop-color="#15cf74"/><stop offset="0.8" stop-color="#06e775"/><stop offset="1" stop-color="#00f076"/></linearGradient></defs><path class="cls-1" d="M5234.4,1604H201.4C90.4,1604,0,1513.6,0,1403.5V200.5C0,90,90.4,0,201.4,0h5033c110.9,0,201.4,90,201.4,200.5v1203C5435.8,1513.6,5345.3,1604,5234.4,1604Z"/><path class="cls-2" d="M5234.4,32.1c93.1,0,169.3,75.7,169.3,168.4v1203c0,92.7-75.7,168.4-169.3,168.4H201.4c-93.1,0-169.3-75.7-169.3-168.4V200.5c0-92.7,75.7-168.4,169.3-168.4Zm0-32.1H201.4C90.4,0,0,90.4,0,200.5v1203C0,1514,90.4,1604,201.4,1604h5033c110.9,0,201.4-90,201.4-200.5V200.5C5435.8,90.4,5345.3,0,5234.4,0Z"/><path class="cls-3" d="M2863.6,530.6c-36.3,0-66.9-12.7-91.1-37.7a128.39,128.39,0,0,1-36.8-92c0-36.5,12.4-67.4,36.8-91.9,24.1-25,54.7-37.7,91-37.7,35.9,0,66.5,12.7,91.1,37.7,24.4,25.3,36.8,56.2,36.8,91.9-.4,36.6-12.8,67.5-36.8,91.9C2930.5,518,2899.9,530.6,2863.6,530.6Zm-1080.1,0c-35.5,0-66.3-12.5-91.5-37.2-25-24.6-37.7-55.7-37.7-92.4s12.7-67.8,37.7-92.4c24.7-24.7,55.5-37.2,91.5-37.2a127.51,127.51,0,0,1,51.1,10.6c16.1,6.9,29.2,16.3,38.9,27.8l2.4,2.9-27.1,26.6L1846,336c-15.3-18.2-35.8-27.1-62.9-27.1-24.2,0-45.3,8.6-62.7,25.6S1694,374,1694,401.1s8.9,49.5,26.4,66.6,38.5,25.6,62.7,25.6c25.8,0,47.5-8.6,64.4-25.6,10-10,16.2-24,18.4-41.7H1779V388.6h124.2l.5,3.4a137.21,137.21,0,0,1,1.8,18.8c0,34.5-10.4,62.4-31,83C1851.1,518.2,1820.5,530.6,1783.5,530.6Zm1436.1-5.3h-38.3L3064,337.6l1,33.8V525.2h-38.3V276.7h43.7l1.2,1.9,110.3,176.8-1-33.7v-145h38.7V525.3Zm-643.8,0H2537V314.1h-67.3V276.7H2643v37.4h-67.3V525.3Zm-137.7,0h-38.7V276.7h38.7Zm-217.5,0h-38.7V314.1h-67.3V276.7h173.3v37.4h-67.3Zm-130.5-.4H1941.7V276.7h148.4v37.4H1980.5v68.2h98.9v37h-98.9v68.2h109.6Zm710.8-57.7c17.3,17.3,38.3,26,62.7,26,25.1,0,45.6-8.5,62.7-26,17-17,25.6-39.3,25.6-66.2s-8.6-49.3-25.5-66.2c-17.3-17.3-38.4-26-62.7-26-25.1,0-45.6,8.5-62.6,26-17,17-25.6,39.3-25.6,66.2s8.5,49.3,25.4,66.2Z"/><path class="cls-4" d="M2732.1,872.4c-94.5,0-171.1,71.7-171.1,170.6,0,98,77.1,170.6,171.1,170.6,94.5,0,171.1-72.2,171.1-170.6C2903.2,944.1,2826.6,872.4,2732.1,872.4Zm0,273.6c-51.7,0-96.2-42.8-96.2-103.4,0-61.5,44.6-103.4,96.2-103.4s96.2,41.9,96.2,103.4C2828.4,1103.6,2783.8,1146,2732.1,1146ZM2358.8,872.4c-94.5,0-171.1,71.7-171.1,170.6,0,98,77.1,170.6,171.1,170.6,94.5,0,171.1-72.2,171.1-170.6C2529.9,944.1,2453.2,872.4,2358.8,872.4Zm0,273.6c-51.7,0-96.2-42.8-96.2-103.4,0-61.5,44.6-103.4,96.2-103.4s96.2,41.9,96.2,103.4C2455,1103.6,2410.5,1146,2358.8,1146ZM1914.6,924.5v72.2h173.3c-5.3,40.5-18.7,70.4-39.2,90.9-25.4,25.4-64.6,53-133.7,53-106.5,0-189.8-86-189.8-192.5s83.3-192.5,189.8-192.5c57.5,0,99.4,22.7,130.5,51.7l51.2-51.2C2053.5,714.7,1996,683,1915.4,683c-146.1,0-268.7,119-268.7,264.7,0,146.1,122.5,264.7,268.7,264.7,78.9,0,138.1-25.8,184.9-74.4,47.7-47.7,62.8-115,62.8-169.3,0-16.9-1.3-32.1-4-45H1914.5C1914.6,923.6,1914.6,924.5,1914.6,924.5Zm1816.9,56.2C3717.2,942.4,3674,872,3585.4,872c-87.8,0-160.8,69.1-160.8,170.6,0,95.8,72.2,170.6,169.3,170.6,78,0,123.4-47.7,142.1-75.7l-57.9-38.8c-19.2,28.5-45.9,47.2-83.8,47.2-38.3,0-65.1-17.4-82.9-51.7l228.1-94.5C3739.5,999.8,3731.5,980.7,3731.5,980.7Zm-232.6,57c-1.8-65.9,51.2-99.4,89.1-99.4,29.9,0,54.8,14.7,63.3,36.1ZM3313.6,1203h74.9V701.8h-74.9Zm-123-292.7h-2.7c-16.9-20.1-49-38.3-90-38.3-85.1,0-163.5,74.9-163.5,171.1,0,95.8,78,169.8,163.5,169.8,40.5,0,73.1-18.3,90-38.8h2.7v24.5c0,65.1-34.8,100.2-90.9,100.2-45.9,0-74.4-33-86-60.6l-65.1,27.2c18.7,45,68.6,100.7,151,100.7,87.8,0,162.2-51.7,162.2-177.8V882.2H3191v28.1Zm-86,235.7c-51.7,0-94.9-43.2-94.9-102.9,0-60.2,43.2-103.8,94.9-103.8,51.2,0,90.9,44.1,90.9,103.8C3196,1102.8,3155.9,1146,3104.6,1146Zm977.6-444.2H3903.1V1203H3978V1013.2h104.3c82.9,0,164.4-60.1,164.4-155.5S4165.5,701.8,4082.2,701.8Zm2.2,241.4H3977.9v-172h106.5c56.1,0,87.8,46.3,87.8,86C4172.2,896.5,4140.1,943.2,4084.4,943.2Zm462.5-71.7c-54.4,0-110.5,24.1-133.7,76.6l66.4,27.6c14.3-27.6,40.5-37,68.2-37,38.8,0,78,23.2,78.9,64.6v5.3c-13.4-7.6-42.8-19.2-78-19.2-71.7,0-144.4,39.2-144.4,112.7,0,67.3,58.8,110.5,124.3,110.5,50.3,0,78-22.7,95.3-49h2.7v38.8h72.2v-192C4698.8,921,4632.4,871.5,4546.9,871.5Zm-9.4,274.5c-24.5,0-58.8-12-58.8-42.8,0-38.8,42.8-53.5,79.3-53.5,33,0,48.6,7.1,68.2,16.9A90.16,90.16,0,0,1,4537.5,1146Zm424.7-263.8-86,217.4h-2.7l-89.1-217.4h-80.6l133.7,303.9L4761.3,1355h78L5045,882.2ZM4288,1203h74.9V701.8H4288Z"/><path class="cls-5" d="M418.4,302.1c-11.6,12.5-18.3,31.6-18.3,56.6v886.7c0,25,6.7,44.1,18.7,56.1l3.1,2.7L918.7,807.4V796.3L421.5,299.4Z"/><path class="cls-6" d="M1084,973.5,918.3,807.8V796.2L1084,630.5l3.6,2.2,196,111.4c56.1,31.6,56.1,83.8,0,115.8l-196,111.4Z"/><path class="cls-7" d="M1087.6,971.3,918.3,802,418.4,1301.9c18.3,19.6,49,21.8,83.3,2.7l585.9-333.3"/><path class="cls-8" d="M1087.6,632.7,501.7,299.9c-34.3-19.6-65.1-16.9-83.3,2.7L918.3,802Z"/><path class="cls-9" d="M1084,967.7,502.1,1298.3c-32.5,18.7-61.5,17.4-80.2.4l-3.1,3.1,3.1,2.7c18.7,16.9,47.7,18.3,80.2-.4L1088,971.3Z"/><path class="cls-10" d="M1283.6,854.1,1083.5,967.7l3.6,3.6,196-111.4c28.1-16,41.9-37,41.9-57.9C1323.3,821.2,1309,839.4,1283.6,854.1Z"/><path class="cls-11" d="M501.7,305.7l781.9,444.2c25.4,14.3,39.7,33,41.9,52.1,0-20.9-13.8-41.9-41.9-57.9L501.7,299.9c-56.1-32.1-101.6-5.3-101.6,58.8v5.8C400.1,300.3,445.6,274,501.7,305.7Z"/></svg>