<?xml version="1.0" encoding="UTF-8"?> <svg xmlns="http://www.w3.org/2000/svg" width="1048" height="296" viewBox="0 0 1048 296" fill="none"> <g clip-path="url(#clip0_2067_132684)"> <path fill-rule="evenodd" clip-rule="evenodd" d="M1021.8 150.72C1019.06 139.24 1006.67 130.81 994.08 130.81C981.49 130.81 969.47 138.88 966.36 150.72H1021.8ZM994.46 106.92C1030.23 106.92 1053.2 135.18 1047.46 169.53H965.52C967.32 184.43 979.75 193.72 993.66 193.71C1006.32 193.7 1016.78 187.95 1022.42 176.31L1045.05 187.73C1035.83 205.78 1016.44 217.64 994.46 217.64C961.39 217.47 938.39 192.85 938.39 162.28C938.39 131.71 961.57 107.1 994.46 106.92" fill="white"></path> <path d="M-0.339844 148C-0.339844 106.78 -0.339844 86.1698 5.41016 69.5798C15.8702 39.4298 39.5602 15.7298 69.7202 5.27979C86.3002 -0.470215 106.91 -0.470215 148.14 -0.470215C189.37 -0.470215 209.97 -0.470215 226.56 5.27979C256.71 15.7298 280.41 39.4298 290.86 69.5798C296.61 86.1698 296.61 106.77 296.61 148C296.61 189.23 296.61 209.83 290.86 226.42C280.41 256.57 256.71 280.27 226.56 290.72C209.97 296.47 189.36 296.47 148.14 296.47C106.92 296.47 86.3002 296.47 69.7202 290.72C39.5702 280.27 15.8702 256.57 5.41016 226.42C-0.339844 209.83 -0.339844 189.23 -0.339844 148" fill="#A7E92F"></path> <path d="M475.81 120.74L475.02 109.93H449.77V214.64H476.99V160.76C476.99 128.65 521.349 126.19 521.349 153.7V214.63H548.58V151.27C548.58 104.35 496.83 98.61 475.81 120.75" fill="white"></path> <path d="M618.36 81.3801H570.2V214.63H618.36C657.19 214.63 686.52 186.07 686.52 148C686.52 109.93 657.2 81.3701 618.36 81.3701M618.36 188.75H597.42V107.27H618.36C642.34 107.27 659.29 124.02 659.29 148.02C659.29 172.02 642.35 188.76 618.36 188.76" fill="white"></path> <path d="M731.021 121.28L730.23 109.93H704.98V214.64H732.201V169.15C732.201 143.47 751.741 132.42 773.341 137.17V109.19C760.191 105.9 740.871 107.93 731.021 121.29" fill="white"></path> <path d="M909.69 109.93L883.97 185.13L858.44 109.93H829.5L867.78 214.64H900.35L938.63 109.93H909.69Z" fill="white"></path> <path d="M428.7 109.93H401.47V214.64H428.7V109.93Z" fill="white"></path> <path d="M428.7 69.3701H401.47V96.6001H428.7V69.3701Z" fill="white"></path> <path d="M815.41 109.93H788.19V214.64H815.41V109.93Z" fill="white"></path> <path d="M815.42 69.3701H788.19V96.6001H815.42V69.3701Z" fill="white"></path> <path fill-rule="evenodd" clip-rule="evenodd" d="M81.8602 127.42C78.4802 127.42 76.2402 129.66 76.2402 133.04V220.91C76.2402 224.29 78.4802 226.53 81.8602 226.53H105.57C108.95 226.53 111.2 224.29 111.2 220.91V133.04C111.2 129.66 108.96 127.42 105.57 127.42H81.8602Z" fill="black"></path> <path d="M105.57 69.3501H81.8602C78.7564 69.3501 76.2402 71.8663 76.2402 74.9701V97.7401C76.2402 100.844 78.7564 103.36 81.8602 103.36H105.57C108.674 103.36 111.19 100.844 111.19 97.7401V74.9701C111.19 71.8663 108.674 69.3501 105.57 69.3501Z" fill="black"></path> <path fill-rule="evenodd" clip-rule="evenodd" d="M162.55 192.59H143.63C140.25 192.59 138 194.83 138 198.21V220.91C138 224.29 140.24 226.51 143.63 226.53L162.55 226.65C270.35 226.65 270.35 69.3398 162.55 69.3398L143.63 69.4599C140.25 69.4799 138 71.6998 138 75.0798V97.7798C138 101.16 140.25 103.4 143.63 103.4H162.55C223.53 103.4 223.53 192.58 162.55 192.58" fill="black"></path> </g> <defs> <clipPath id="clip0_2067_132684"> <rect width="1048" height="296" fill="white"></rect> </clipPath> </defs> </svg> 