<svg width="40" height="40" viewBox="0 0 40 40" fill="none" xmlns="http://www.w3.org/2000/svg">
    <g clip-path="url(#clip0_2465_55594)">
        <circle cx="20" cy="20" r="19.5" stroke="#A6A6A6"/>
        <path fill-rule="evenodd" clip-rule="evenodd"
              d="M27.9593 16.7041C27.9218 15.8539 27.7843 15.2694 27.5874 14.763C27.3842 14.2254 27.0715 13.7441 26.662 13.344C26.2618 12.9377 25.7772 12.6219 25.2458 12.422C24.7363 12.225 24.1548 12.0875 23.3044 12.0501C22.4478 12.0094 22.1758 12 20.0031 12C17.8304 12 17.5584 12.0094 16.705 12.0469C15.8546 12.0844 15.2701 12.222 14.7636 12.4188C14.2258 12.6219 13.7445 12.9345 13.3443 13.344C12.9379 13.7441 12.6222 14.2286 12.422 14.7599C12.2251 15.2694 12.0876 15.8507 12.0501 16.7009C12.0094 17.5574 12 17.8293 12 20.0016C12 22.1739 12.0094 22.4458 12.0469 23.2991C12.0844 24.1493 12.222 24.7337 12.419 25.2402C12.6222 25.7778 12.9379 26.2591 13.3443 26.6592C13.7445 27.0655 14.229 27.3812 14.7605 27.5812C15.2701 27.7782 15.8515 27.9156 16.7019 27.9531C17.5553 27.9907 17.8273 28 20.0001 28C22.1728 28 22.4447 27.9907 23.2982 27.9531C24.1485 27.9156 24.7331 27.7782 25.2395 27.5812C26.315 27.1655 27.1653 26.3153 27.5811 25.2402C27.778 24.7307 27.9156 24.1493 27.9531 23.2991C27.9906 22.4458 28 22.1739 28 20.0016C28 17.8293 27.9968 17.5574 27.9593 16.7041ZM26.5182 23.2366C26.4838 24.018 26.3525 24.44 26.2431 24.7213C25.9742 25.4183 25.4209 25.9715 24.7237 26.2404C24.4423 26.3498 24.0172 26.481 23.2387 26.5153C22.3947 26.5529 22.1415 26.5622 20.0063 26.5622C17.8711 26.5622 17.6147 26.5529 16.7737 26.5153C15.9922 26.481 15.5701 26.3498 15.2888 26.2404C14.9418 26.1122 14.626 25.909 14.3697 25.6433C14.104 25.3839 13.9008 25.0713 13.7725 24.7244C13.6631 24.4431 13.5318 24.018 13.4975 23.2398C13.4599 22.3959 13.4506 22.1426 13.4506 20.0078C13.4506 17.873 13.4599 17.6167 13.4975 16.776C13.5318 15.9946 13.6631 15.5726 13.7725 15.2913C13.9008 14.9443 14.104 14.6287 14.3729 14.3723C14.6322 14.1066 14.9449 13.9035 15.2919 13.7754C15.5733 13.666 15.9985 13.5347 16.7769 13.5003C17.621 13.4628 17.8742 13.4534 20.0093 13.4534C22.1477 13.4534 22.4009 13.4628 23.2419 13.5003C24.0235 13.5347 24.4455 13.666 24.7269 13.7754C25.0738 13.9035 25.3896 14.1066 25.6459 14.3723C25.9117 14.6317 26.1149 14.9443 26.2431 15.2913C26.3525 15.5726 26.4838 15.9976 26.5182 16.776C26.5557 17.6199 26.5651 17.873 26.5651 20.0078C26.5651 22.1426 26.5557 22.3927 26.5182 23.2366ZM20.0022 15.8914C17.7327 15.8914 15.8913 17.7323 15.8913 20.0015C15.8913 22.2708 17.7327 24.1117 20.0022 24.1117C22.2719 24.1117 24.1132 22.2708 24.1132 20.0015C24.1132 17.7323 22.2719 15.8914 20.0022 15.8914ZM20.0022 22.6677C18.5299 22.6677 17.3355 21.4738 17.3355 20.0015C17.3355 18.5293 18.5299 17.3354 20.0022 17.3354C21.4747 17.3354 22.6689 18.5293 22.6689 20.0015C22.6689 21.4738 21.4747 22.6677 20.0022 22.6677ZM24.2771 16.6886C24.8072 16.6886 25.2369 16.259 25.2369 15.7291C25.2369 15.1991 24.8072 14.7695 24.2771 14.7695C23.7471 14.7695 23.3173 15.1991 23.3173 15.7291C23.3173 16.259 23.7471 16.6886 24.2771 16.6886Z"
              fill="white"/>
    </g>
    <defs>
        <clipPath id="clip0_2465_55594">
            <rect width="40" height="40" fill="white"/>
        </clipPath>
    </defs>
</svg>
